<svg width="84" height="66" viewBox="0 0 84 66" fill="none" xmlns="http://www.w3.org/2000/svg">
<path d="M79.0751 0.00791961C71.0833 0.461459 55.1989 2.11228 45.3929 8.11476C44.7162 8.52892 44.3326 9.26538 44.3326 10.0354V63.0995C44.3326 64.7839 46.1745 65.8484 47.7277 65.0668C57.8166 59.9889 72.4075 58.6035 79.622 58.2243C82.0852 58.0945 84 56.1199 84 53.7531V4.48498C84.0015 1.90229 81.7614 -0.143746 79.0751 0.00791961ZM38.6071 8.11476C28.8026 2.11228 12.9181 0.462917 4.92634 0.00791961C2.24004 -0.143746 0 1.90229 0 4.48498V53.7545C0 56.1229 1.91482 58.0974 4.37799 58.2258C11.5954 58.6049 26.1936 59.9918 36.2825 65.0726C37.8313 65.8528 39.6674 64.7897 39.6674 63.1097V10.0091C39.6674 9.23767 39.2853 8.53038 38.6071 8.11476Z" fill="white"/>
</svg>
