<svg width="97" height="67" viewBox="0 0 97 67" fill="none" xmlns="http://www.w3.org/2000/svg">
<path d="M29.1 33.5C38.4817 33.5 46.075 26.0074 46.075 16.75C46.075 7.49263 38.4817 0 29.1 0C19.7183 0 12.125 7.49263 12.125 16.75C12.125 26.0074 19.7183 33.5 29.1 33.5ZM40.74 38.2857H39.482C36.3295 39.7812 32.8284 40.6786 29.1 40.6786C25.3716 40.6786 21.8856 39.7812 18.718 38.2857H17.46C7.82062 38.2857 0 46.0027 0 55.5143V59.8214C0 63.7846 3.25859 67 7.275 67H50.925C54.9414 67 58.2 63.7846 58.2 59.8214V55.5143C58.2 46.0027 50.3794 38.2857 40.74 38.2857ZM72.75 33.5C80.7828 33.5 87.3 27.0692 87.3 19.1429C87.3 11.2165 80.7828 4.78571 72.75 4.78571C64.7172 4.78571 58.2 11.2165 58.2 19.1429C58.2 27.0692 64.7172 33.5 72.75 33.5ZM80.025 38.2857H79.4491C77.3423 39.0036 75.1144 39.4821 72.75 39.4821C70.3856 39.4821 68.1577 39.0036 66.0509 38.2857H65.475C62.3831 38.2857 59.5337 39.1681 57.033 40.5888C60.7311 44.5221 63.05 49.7415 63.05 55.5143V61.2571C63.05 61.5862 62.9742 61.9002 62.9591 62.2143H89.725C93.7414 62.2143 97 58.9989 97 55.0357C97 45.7783 89.4067 38.2857 80.025 38.2857Z" fill="white"/>
</svg>
