<svg width="71" height="70" viewBox="0 0 71 70" fill="none" xmlns="http://www.w3.org/2000/svg">
<path d="M63.3929 0H7.60714C5.5896 0 3.6547 0.790177 2.22808 2.1967C0.801464 3.60322 0 5.51088 0 7.5L0 62.5C0 64.4891 0.801464 66.3968 2.22808 67.8033C3.6547 69.2098 5.5896 70 7.60714 70H29.3588V46.2016H19.3744V35H29.3588V26.4625C29.3588 16.7516 35.2227 11.3875 44.2038 11.3875C48.505 11.3875 53.0028 12.1438 53.0028 12.1438V21.675H48.047C43.1642 21.675 41.6412 24.6625 41.6412 27.7266V35H52.5416L50.7983 46.2016H41.6412V70H63.3929C65.4104 70 67.3453 69.2098 68.7719 67.8033C70.1985 66.3968 71 64.4891 71 62.5V7.5C71 5.51088 70.1985 3.60322 68.7719 2.1967C67.3453 0.790177 65.4104 0 63.3929 0Z" fill="white"/>
</svg>
