<svg width="91" height="61" viewBox="0 0 91 61" fill="none" xmlns="http://www.w3.org/2000/svg">
<path d="M87.2083 0H13.9028C11.8087 0 10.1111 1.70689 10.1111 3.8125V5.08333H3.79167C1.69756 5.08333 0 6.79022 0 8.89583V52.1042C0 57.0172 3.96103 61 8.84722 61H83.4167C87.6049 61 91 57.5862 91 53.375V3.8125C91 1.70689 89.3024 0 87.2083 0ZM8.84722 53.375C8.51202 53.375 8.19054 53.2411 7.95352 53.0028C7.71649 52.7645 7.58333 52.4412 7.58333 52.1042V12.7083H10.1111V52.1042C10.1111 52.4412 9.97795 52.7645 9.74093 53.0028C9.5039 53.2411 9.18243 53.375 8.84722 53.375ZM46.1319 50.8333H22.1181C21.0711 50.8333 20.2222 49.9798 20.2222 48.9271V47.6562C20.2222 46.6035 21.0711 45.75 22.1181 45.75H46.1319C47.1789 45.75 48.0278 46.6035 48.0278 47.6562V48.9271C48.0278 49.9798 47.1789 50.8333 46.1319 50.8333ZM78.993 50.8333H54.9792C53.9322 50.8333 53.0833 49.9798 53.0833 48.9271V47.6562C53.0833 46.6035 53.9322 45.75 54.9792 45.75H78.993C80.04 45.75 80.8889 46.6035 80.8889 47.6562V48.9271C80.8889 49.9798 80.04 50.8333 78.993 50.8333ZM46.1319 35.5833H22.1181C21.0711 35.5833 20.2222 34.7298 20.2222 33.6771V32.4062C20.2222 31.3535 21.0711 30.5 22.1181 30.5H46.1319C47.1789 30.5 48.0278 31.3535 48.0278 32.4062V33.6771C48.0278 34.7298 47.1789 35.5833 46.1319 35.5833ZM78.993 35.5833H54.9792C53.9322 35.5833 53.0833 34.7298 53.0833 33.6771V32.4062C53.0833 31.3535 53.9322 30.5 54.9792 30.5H78.993C80.04 30.5 80.8889 31.3535 80.8889 32.4062V33.6771C80.8889 34.7298 80.04 35.5833 78.993 35.5833ZM78.993 20.3333H22.1181C21.0711 20.3333 20.2222 19.4798 20.2222 18.4271V12.0729C20.2222 11.0202 21.0711 10.1667 22.1181 10.1667H78.993C80.04 10.1667 80.8889 11.0202 80.8889 12.0729V18.4271C80.8889 19.4798 80.04 20.3333 78.993 20.3333Z" fill="white"/>
</svg>
