<svg width="79" height="78" viewBox="0 0 79 78" fill="none" xmlns="http://www.w3.org/2000/svg">
<path d="M79 39C79 60.5444 61.3206 78 39.5 78C17.6794 78 0 60.5444 0 39C0 17.4556 17.6794 0 39.5 0C61.3206 0 79 17.4556 79 39ZM56.1282 34.4552L44.5968 46.3282V17.6129C44.5968 15.5214 42.8925 13.8387 40.7742 13.8387H38.2258C36.1075 13.8387 34.4032 15.5214 34.4032 17.6129V46.3282L22.8718 34.4552C21.3905 32.9298 18.9218 32.8984 17.4087 34.3923L15.6726 36.1222C14.1754 37.6004 14.1754 39.9907 15.6726 41.4532L36.7923 62.3214C38.2895 63.7996 40.7105 63.7996 42.1917 62.3214L63.3274 41.4532C64.8246 39.975 64.8246 37.5847 63.3274 36.1222L61.5913 34.3923C60.0782 32.8984 57.6095 32.9298 56.1282 34.4552Z" fill="white"/>
</svg>
