<svg width="65" height="86" viewBox="0 0 65 86" fill="none" xmlns="http://www.w3.org/2000/svg">
<path d="M29.1599 84.2649C4.56523 48.8841 0 45.253 0 32.25C0 14.4388 14.5507 0 32.5 0C50.4493 0 65 14.4388 65 32.25C65 45.253 60.4348 48.8841 35.84 84.2649C34.2261 86.5785 30.7738 86.5783 29.1599 84.2649ZM32.5 45.6875C39.9789 45.6875 46.0417 39.6714 46.0417 32.25C46.0417 24.8286 39.9789 18.8125 32.5 18.8125C25.0211 18.8125 18.9583 24.8286 18.9583 32.25C18.9583 39.6714 25.0211 45.6875 32.5 45.6875Z" fill="white"/>
</svg>
