<svg width="84" height="76" viewBox="0 0 84 76" fill="none" xmlns="http://www.w3.org/2000/svg">
<g clip-path="url(#clip0_1342_7763)">
<path d="M77 0H7C3.13542 0 0 3.17461 0 7.0875V54.3375C0 58.2504 3.13542 61.425 7 61.425H35L32.6667 68.5125H22.1667C20.2271 68.5125 18.6667 70.0924 18.6667 72.0563C18.6667 74.0201 20.2271 75.6 22.1667 75.6H61.8333C63.7729 75.6 65.3333 74.0201 65.3333 72.0563C65.3333 70.0924 63.7729 68.5125 61.8333 68.5125H51.3333L49 61.425H77C80.8646 61.425 84 58.2504 84 54.3375V7.0875C84 3.17461 80.8646 0 77 0ZM74.6667 51.975H9.33333V9.45H74.6667V51.975Z" fill="white"/>
</g>
<defs>
<clipPath id="clip0_1342_7763">
<rect width="84" height="75.6" fill="white"/>
</clipPath>
</defs>
</svg>
