<svg width="87" height="61" viewBox="0 0 87 61" fill="none" xmlns="http://www.w3.org/2000/svg">
<path d="M85.1821 9.54444C84.1815 5.78753 81.2334 2.82872 77.4903 1.8246C70.7057 0 43.5 0 43.5 0C43.5 0 16.2945 0 9.50967 1.8246C5.76656 2.82888 2.81852 5.78753 1.81795 9.54444C0 16.354 0 30.5616 0 30.5616C0 30.5616 0 44.7692 1.81795 51.5788C2.81852 55.3357 5.76656 58.1713 9.50967 59.1754C16.2945 61 43.5 61 43.5 61C43.5 61 70.7055 61 77.4903 59.1754C81.2334 58.1713 84.1815 55.3357 85.1821 51.5788C87 44.7692 87 30.5616 87 30.5616C87 30.5616 87 16.354 85.1821 9.54444ZM34.6022 43.4611V17.6622L57.3408 30.562L34.6022 43.4611Z" fill="white"/>
</svg>
